custom-analysis
version=1
nRows=4
nColumns=98
inDegrees=no

This file contains tibia displacement and acting force.

Units are S.I. units (seconds, meters, Newtons, ...)
Angles are in degrees.

endheader
time	APT	SIT	knee_angle	aACL_R_force	pACL_R_force	aPCL_R_force	pPCL_R_force	aMCL_R_force	mMCL_R_force	pMCL_R_force	aLCL_R_force	mLCL_R_force	pLCL_R_force	aPCL_L_force	pPCL_L_force	aMCL_L_force	aLCL_L_force	aACL_R_length	pACL_R_length	aPCL_R_length	pPCL_R_length	aMCL_R_length	mMCL_R_length	pMCL_R_length	aLCL_R_length	mLCL_R_length	pLCL_R_length	aPCL_L_length	pPCL_L_length	aMCL_L_length	aLCL_L_length	aACL_R_strain	pACL_R_strain	aPCL_R_strain	pPCL_R_strain	aMCL_R_strain	mMCL_R_strain	pMCL_R_strain	aLCL_R_strain	mLCL_R_strain	pLCL_R_strain	aPCL_L_strain	pPCL_L_strain	aMCL_L_strain	aLCL_L_strain	femur_lat_meniscii_r.femur_lat_r.force.X	femur_lat_meniscii_r.femur_lat_r.force.Y	femur_lat_meniscii_r.femur_lat_r.force.Z	femur_lat_meniscii_r.femur_lat_r.torque.X	femur_lat_meniscii_r.femur_lat_r.torque.Y	femur_lat_meniscii_r.femur_lat_r.torque.Z	femur_lat_meniscii_r.meniscus_lat_r.force.X	femur_lat_meniscii_r.meniscus_lat_r.force.Y	femur_lat_meniscii_r.meniscus_lat_r.force.Z	femur_lat_meniscii_r.meniscus_lat_r.torque.X	femur_lat_meniscii_r.meniscus_lat_r.torque.Y	femur_lat_meniscii_r.meniscus_lat_r.torque.Z	femur_med_meniscii_r.femur_med_r.force.X	femur_med_meniscii_r.femur_med_r.force.Y	femur_med_meniscii_r.femur_med_r.force.Z	femur_med_meniscii_r.femur_med_r.torque.X	femur_med_meniscii_r.femur_med_r.torque.Y	femur_med_meniscii_r.femur_med_r.torque.Z	femur_med_meniscii_r.meniscus_med_r.force.X	femur_med_meniscii_r.meniscus_med_r.force.Y	femur_med_meniscii_r.meniscus_med_r.force.Z	femur_med_meniscii_r.meniscus_med_r.torque.X	femur_med_meniscii_r.meniscus_med_r.torque.Y	femur_med_meniscii_r.meniscus_med_r.torque.Z	femur_med_tibia_r.tibia_upper_r.force.X	femur_med_tibia_r.tibia_upper_r.force.Y	femur_med_tibia_r.tibia_upper_r.force.Z	femur_med_tibia_r.tibia_upper_r.torque.X	femur_med_tibia_r.tibia_upper_r.torque.Y	femur_med_tibia_r.tibia_upper_r.torque.Z	femur_med_tibia_r.femur_med_r.force.X	femur_med_tibia_r.femur_med_r.force.Y	femur_med_tibia_r.femur_med_r.force.Z	femur_med_tibia_r.femur_med_r.torque.X	femur_med_tibia_r.femur_med_r.torque.Y	femur_med_tibia_r.femur_med_r.torque.Z	femur_lat_tibia_r.tibia_upper_r.force.X	femur_lat_tibia_r.tibia_upper_r.force.Y	femur_lat_tibia_r.tibia_upper_r.force.Z	femur_lat_tibia_r.tibia_upper_r.torque.X	femur_lat_tibia_r.tibia_upper_r.torque.Y	femur_lat_tibia_r.tibia_upper_r.torque.Z	femur_lat_tibia_r.femur_lat_r.force.X	femur_lat_tibia_r.femur_lat_r.force.Y	femur_lat_tibia_r.femur_lat_r.force.Z	femur_lat_tibia_r.femur_lat_r.torque.X	femur_lat_tibia_r.femur_lat_r.torque.Y	femur_lat_tibia_r.femur_lat_r.torque.Z	femur_lat_meniscii_force_r	femur_med_meniscii_force_r	femur_lat_tibia_force_r	femur_med_tibia_force_r
      0.20956689	      0.01351510	      0.02613999	     81.32207954	      0.85162016	      0.00000000	    963.97660325	    608.86423745	     23.88327997	      9.73307493	      0.00000000	      0.00000000	      0.00000000	      0.00000000	      0.00000000	      0.00000000	      0.00000001	      0.00000000	      0.03103815	      0.02443614	      0.03716425	      0.03395111	      0.06147339	      0.05991932	      0.05656754	      0.05015272	      0.04471484	      0.03971528	      0.01525851	      0.01651186	      0.06550154	      0.04489616	      0.00105297	     -0.02484403	      0.19517247	      0.13595207	      0.02409560	      0.00210429	     -0.03678763	     -0.10405093	     -0.20603782	     -0.24124511	      0.00000079	     -0.32847694	      0.00000060	     -0.00000086	    169.40740352	    102.50132128	      8.91902558	     -5.90002852	      3.93353826	     67.27809276	   -169.40740352	   -102.50132128	     -8.91902558	      2.65193418	     -4.62039644	      2.30967726	      0.04245702	      0.00103812	     -0.02657126	      0.01057938	     -0.00065978	      0.01687808	     -0.04245702	     -0.00103812	      0.02657126	     -0.00009787	      0.00126876	     -0.00010637	   -890.22564173	   -367.62564535	    315.41011118	     -8.27616758	     21.82442603	      2.27228333	    890.22564173	    367.62564535	   -315.41011118	    133.62859584	    -15.61031714	    358.77007912	   -297.73079026	   -133.20111602	    -80.82142591	      4.32887185	    -10.27042716	      0.98119406	    297.73079026	    133.20111602	     80.82142591	    -35.85211540	      7.29678496	    120.04528578	    198.20428414	      0.05009699	    336.03312882	   1013.47612036
      0.20958802	      0.01351434	      0.02614407	     81.33362028	      0.82604455	      0.00000000	    964.14190691	    608.99514657	     23.86210601	      9.72059239	      0.00000000	      0.00000000	      0.00000000	      0.00000000	      0.00000000	      0.00000000	      0.00000001	      0.00000000	      0.03103819	      0.02443675	      0.03716515	      0.03395183	      0.06147397	      0.05991960	      0.05656797	      0.05015160	      0.04471356	      0.03971418	      0.01525851	      0.01651186	      0.06550154	      0.04489616	      0.00105442	     -0.02481953	      0.19520160	      0.13597606	      0.02410528	      0.00210900	     -0.03678019	     -0.10407096	     -0.20606057	     -0.24126610	      0.00000079	     -0.32847694	      0.00000060	     -0.00000086	    169.36760394	    102.59022401	      8.95849875	     -5.91797966	      3.93283976	     67.26035713	   -169.36760394	   -102.59022401	     -8.95849875	      2.65456963	     -4.62077507	      2.31506985	      0.04232013	      0.00104594	     -0.02648033	      0.01054324	     -0.00065760	      0.01682349	     -0.04232013	     -0.00104594	      0.02648033	     -0.00009746	      0.00126450	     -0.00010537	   -890.33322327	   -367.64483297	    315.46608801	     -8.27443556	     21.82724276	      2.27879302	    890.33322327	    367.64483297	   -315.46608801	    133.65054751	    -15.61172957	    358.81111019	   -297.74649677	   -133.24502157	    -80.82801360	      4.32945240	    -10.27139833	      0.98529574	    297.74649677	    133.24502157	     80.82801360	    -35.85545328	      7.29720513	    120.05012651	    198.21804667	      0.04993291	    336.06603502	   1013.59500016
      0.20959858	      0.01351396	      0.02614612	     81.33939051	      0.81360288	      0.00000000	    964.22435347	    609.05998248	     23.85129881	      9.71407913	      0.00000000	      0.00000000	      0.00000000	      0.00000000	      0.00000000	      0.00000000	      0.00000001	      0.00000000	      0.03103821	      0.02443706	      0.03716561	      0.03395218	      0.06147426	      0.05991975	      0.05656819	      0.05015104	      0.04471292	      0.03971363	      0.01525851	      0.01651186	      0.06550154	      0.04489616	      0.00105513	     -0.02480729	      0.19521616	      0.13598806	      0.02411011	      0.00211136	     -0.03677646	     -0.10408097	     -0.20607194	     -0.24127659	      0.00000079	     -0.32847694	      0.00000060	     -0.00000086	    169.36804817	    102.64415966	      8.96643833	     -5.92241939	      3.93284507	     67.25962359	   -169.36804817	   -102.64415966	     -8.96643833	      2.65602872	     -4.62105248	      2.31791208	      0.04225191	      0.00104984	     -0.02643522	      0.01052532	     -0.00065652	      0.01679629	     -0.04225191	     -0.00104984	      0.02643522	     -0.00009726	      0.00126239	     -0.00010487	   -890.39803638	   -367.67492803	    315.49183399	     -8.27369150	     21.82865982	      2.28271171	    890.39803638	    367.67492803	   -315.49183399	    133.66081475	    -15.61253409	    358.83586454	   -297.67923622	   -133.11659765	    -81.20188350	      4.33191701	    -10.28499572	      0.98246842	    297.67923622	    133.11659765	     81.20188350	    -36.00583633	      7.30067484	    120.02372416	    198.24670557	      0.04985125	    336.04568459	   1013.67086039
      0.20962781	      0.01351291	      0.02615177	     81.35535501	      0.77771045	      0.00000000	    964.45295687	    609.24082456	     23.82125544	      9.69612457	      0.00000000	      0.00000000	      0.00000000	      0.00000000	      0.00000000	      0.00000000	      0.00000001	      0.00000000	      0.03103827	      0.02443791	      0.03716686	      0.03395318	      0.06147506	      0.05992013	      0.05656880	      0.05014949	      0.04471115	      0.03971211	      0.01525851	      0.01651186	      0.06550154	      0.04489616	      0.00105703	     -0.02477347	      0.19525648	      0.13602129	      0.02412348	      0.00211786	     -0.03676615	     -0.10410866	     -0.20610339	     -0.24130558	      0.00000079	     -0.32847694	      0.00000060	     -0.00000086	    169.32644973	    102.74529494	      9.03817502	     -5.95359691	      3.93237087	     67.24067611	   -169.32644973	   -102.74529494	     -9.03817502	      2.65920497	     -4.62256832	      2.32449941	      0.04206130	      0.00106063	     -0.02630868	      0.01047503	     -0.00065348	      0.01672029	     -0.04206130	     -0.00106063	      0.02630868	     -0.00009670	      0.00125647	     -0.00010349	   -890.44649837	   -367.41053819	    316.02401844	     -8.27541984	     21.84859942	      2.28252496	    890.44649837	    367.41053819	   -316.02401844	    133.87388359	    -15.61793262	    358.85434513	   -297.76335998	   -132.84947726	    -81.17281423	      4.32476645	    -10.28620381	      0.97411842	    297.76335998	    132.84947726	     81.17281423	    -35.98830592	      7.30199180	    120.06015888	    198.26681724	      0.04962282	    336.00748194	   1013.78333497
